<?xml version="1.0" standalone="no"?>
<!DOCTYPE svg PUBLIC "-//W3C//DTD SVG 20010904//EN"
 "http://www.w3.org/TR/2001/REC-SVG-20010904/DTD/svg10.dtd">
<svg version="1.0" xmlns="http://www.w3.org/2000/svg"
 width="1936.000000pt" height="1936.000000pt" viewBox="0 0 1936.000000 1936.000000"
 preserveAspectRatio="xMidYMid meet">
<metadata>
Created by potrace 1.11, written by Peter Selinger 2001-2013
</metadata>
<g transform="translate(0.000000,1936.000000) scale(0.100000,-0.100000)"
fill="#000000" stroke="none">
<path d="M0 9680 l0 -9680 9680 0 9680 0 0 9680 0 9680 -9680 0 -9680 0 0
-9680z m10730 7770 c453 -19 822 -52 1215 -110 827 -123 1512 -302 2200 -575
196 -77 683 -292 960 -423 l190 -89 3 -1767 2 -1766 -215 0 -216 0 -92 78
c-454 388 -992 781 -1417 1039 -475 287 -1001 522 -1475 658 -899 259 -2015
185 -2881 -189 -478 -207 -977 -581 -1313 -984 -386 -463 -706 -1115 -865
-1764 -131 -530 -180 -990 -180 -1673 0 -744 62 -1261 219 -1817 177 -625 533
-1276 937 -1712 284 -305 695 -605 1074 -782 402 -188 908 -322 1434 -381 193
-21 675 -24 860 -5 623 64 1186 228 1760 513 309 154 748 422 1061 649 220
160 662 513 845 676 l72 64 196 0 196 0 -2 -1741 -3 -1741 -145 -65 c-430
-192 -965 -423 -1130 -488 -506 -201 -1220 -406 -1865 -535 -605 -120 -1024
-154 -1915 -154 -652 -1 -913 14 -1410 80 -1321 174 -2514 633 -3436 1322
-325 242 -769 659 -1008 947 -872 1049 -1411 2393 -1580 3940 -49 444 -60 682
-61 1225 0 505 7 667 46 1060 172 1751 816 3270 1852 4375 157 167 412 410
552 526 612 506 1324 895 2146 1174 768 260 1540 399 2439 438 172 8 731 6
950 -3z"/>
</g>
</svg>
